<svg xmlns="http://www.w3.org/2000/svg" viewBox="0 0 263.54 196.67"><defs><style>.cls-1{isolation:isolate;}.cls-2{mix-blend-mode:multiply;}.cls-3{fill:#bbddde;}.cls-4{fill:#7c8c9c;}.cls-5{fill:#ff939b;}.cls-6{fill:#fff;}</style></defs><g class="cls-1"><g id="Layer_2" data-name="Layer 2"><g id="Design"><g class="cls-2"><path class="cls-3" d="M128.49,14.31c23.91,9.63,41.36,33.62,43.15,59.34.55,7.77-.32,15.9-4.28,22.61s-11.47,11.69-19.23,11c-6.07-.56-11.31-4.31-16.21-7.93L74.32,56.73c-5-3.72-10.16-7.54-13.75-12.67-3-4.22-6.15-12.14-3.43-17.22,2.32-4.34,9.77-7.67,14-9.78a72.09,72.09,0,0,1,36.52-7.4A67,67,0,0,1,128.49,14.31Z"/></g><path class="cls-4" d="M204.18,196.67h2.19v-6.61c1-19.57,9.45-27.74,14.42-30.88,6-3.77,7.55-4.11,12.18-5.11,1.3-.28,2.91-.63,4.89-1.12l2.67-.63a53.91,53.91,0,0,0,11.24-3.48c5.21-2.5,8.82-6.49,9.92-11,1.13-4.64-.8-9.44-2.5-13.67l-.73-1.83a5,5,0,0,1,.47-4.46c.23-.34.51-.67.8-1a11.07,11.07,0,0,0,1.21-1.66,5.8,5.8,0,0,0,.08-5.33,6.09,6.09,0,0,0-2-2.21,5.12,5.12,0,0,0,1.42-1.68c1-2,.89-4-.42-5-2.13-1.79-3.94-3.44-4.49-5.61a4,4,0,0,1,0-2.08,23.42,23.42,0,0,0,6-5.12,9.09,9.09,0,0,0,1.64-8.51c-1-2.58-3.31-4.2-5.17-5.5-1.53-1.07-3.12-2.08-4.66-3.06-4.29-2.74-8.34-5.32-11.39-9.15-2.42-3-3.74-6.7-5.14-10.57-.57-1.58-1.15-3.2-1.82-4.77-3.3-7.81-8.63-14.47-13.78-20.91-5.77-7.23-16.6-14-19.78-15.95C185-.08,171.8-.4,157.41.17c-16.54.66-32.46,6-44.83,14.91a73.06,73.06,0,0,0-5.1,113.9,159,159,0,0,1,17.2,17.13,42,42,0,0,1,5.9,45.39l2,1a44.25,44.25,0,0,0-6.21-47.8,160.12,160.12,0,0,0-17.41-17.34,70.87,70.87,0,0,1,5-110.48c12-8.7,27.52-13.84,43.63-14.49,17-.68,28.27.57,42.71,9.27,3.1,1.86,13.65,8.5,19.2,15.44,5.06,6.32,10.29,12.86,13.47,20.4.64,1.51,1.22,3.11,1.78,4.65,1.39,3.87,2.84,7.87,5.48,11.2,3.28,4.12,7.68,6.92,11.93,9.62,1.52,1,3.09,2,4.59,3,2,1.39,3.68,2.68,4.37,4.48.86,2.26-.12,4.79-1.34,6.41a22.8,22.8,0,0,1-5.77,4.85,1.07,1.07,0,0,0-.44.6,6.37,6.37,0,0,0-.11,3.61c.77,3,3.34,5.18,5.22,6.75.54.45.32,1.53-.11,2.33a3.19,3.19,0,0,1-2.41,1.63,1.09,1.09,0,0,0,0,2.17,4.54,4.54,0,0,1,3,2.1,3.65,3.65,0,0,1-.05,3.3,8.33,8.33,0,0,1-1,1.3,12.11,12.11,0,0,0-.95,1.23,7.23,7.23,0,0,0-.68,6.45l.74,1.86c1.65,4.12,3.37,8.38,2.4,12.33s-4.13,7.29-8.74,9.5A52.43,52.43,0,0,1,240,150.19l-2.7.63c-2,.48-3.48.81-4.83,1.1-4.79,1-6.58,1.43-12.89,5.41-5.74,3.62-10,9.38-12.62,17.13A57.74,57.74,0,0,0,204.18,190v6.69Z"/><g class="cls-2"><path class="cls-3" d="M135.05,14.31C111.14,23.94,93.69,47.93,91.9,73.65c-.55,7.77.32,15.9,4.28,22.61s11.47,11.69,19.23,11c6.07-.56,11.31-4.31,16.21-7.93l57.6-42.58c5-3.72,10.16-7.54,13.75-12.67,2.95-4.22,6.15-12.14,3.43-17.22-2.32-4.34-9.77-7.67-14-9.78a72.09,72.09,0,0,0-36.52-7.4A66.93,66.93,0,0,0,135.05,14.31Z"/></g><circle class="cls-5" cx="131.73" cy="58.41" r="25.97" transform="translate(27.35 157.76) rotate(-67.5)"/><path class="cls-6" d="M148.25,53.29h-11.4V41.89A1.81,1.81,0,0,0,135,40.07h-6.6a1.81,1.81,0,0,0-1.82,1.82v11.4h-11.4a1.82,1.82,0,0,0-1.82,1.82v6.61a1.82,1.82,0,0,0,1.82,1.82h11.4v11.4a1.82,1.82,0,0,0,1.82,1.82H135a1.82,1.82,0,0,0,1.82-1.82V63.54h11.4a1.82,1.82,0,0,0,1.82-1.82V55.11A1.82,1.82,0,0,0,148.25,53.29Z"/><path class="cls-4" d="M56.12,79.88a21.08,21.08,0,0,1-8.53-1.81A24.77,24.77,0,0,1,35.37,65.41a1.27,1.27,0,0,1,2.33-1A22.16,22.16,0,0,0,48.63,75.75a18.46,18.46,0,0,0,14.68.12,1.27,1.27,0,0,1,1,2.34A20.94,20.94,0,0,1,56.12,79.88Z"/><path class="cls-4" d="M207.55,79.88a21.08,21.08,0,0,0,8.53-1.81A24.73,24.73,0,0,0,228.3,65.41a1.27,1.27,0,1,0-2.32-1A22.18,22.18,0,0,1,215,75.75a18.46,18.46,0,0,1-14.68.12,1.27,1.27,0,0,0-1,2.34A20.94,20.94,0,0,0,207.55,79.88Z"/><path class="cls-4" d="M199.13,82.81a.81.81,0,0,1-.27-1.58,10.15,10.15,0,0,0,4.91-3.65.82.82,0,1,1,1.32,1,11.75,11.75,0,0,1-5.7,4.23A.78.78,0,0,1,199.13,82.81Z"/><path class="cls-4" d="M204.3,84.53a.81.81,0,0,1-.44-1.5,13.76,13.76,0,0,0,4.4-4.61.81.81,0,0,1,1.11-.3.81.81,0,0,1,.3,1.11,15.24,15.24,0,0,1-4.93,5.17A.8.8,0,0,1,204.3,84.53Z"/><path class="cls-4" d="M181,70.8A73.9,73.9,0,0,0,151,15.08C138.59,6.13,122.67.83,106.13.17,91.74-.4,78.51-.08,62.2,9.75c-3.18,1.91-14,8.72-19.78,16-5.15,6.44-10.48,13.09-13.78,20.91-.67,1.57-1.25,3.19-1.82,4.77-1.4,3.87-2.72,7.53-5.14,10.57-3.05,3.83-7.1,6.41-11.39,9.15-1.54,1-3.13,2-4.66,3.06-1.86,1.3-4.18,2.93-5.17,5.5A9.09,9.09,0,0,0,2.1,88.17,14.4,14.4,0,0,0,5,91.07H5l.06,0c.62.49,1.35,1,2.26,1.62,3,2.22,5.91,5.08,6.05,8.38.12,3-1.17,6-2.3,8.68-1.48,3.49-2.66,5.93-3.81,8.29l-.58,1.23h0a.43.43,0,0,0,0,0c-.24.51-.49,1-.73,1.56s-.67,1.35-.71,1.46c-.23.6-.61,1.22-.86,1.84-1.7,4.23-3.63,9-2.5,13.67,1.1,4.47,4.71,8.46,9.92,11A53.91,53.91,0,0,0,23,152.32l2.67.63c2,.49,3.59.84,4.88,1.12,4.64,1,6.2,1.34,12.19,5.11,5,3.14,13.45,11.31,14.42,30.88v6.61h2.19V190a58.13,58.13,0,0,0-2.82-15.52c-2.63-7.75-6.88-13.51-12.62-17.13-6.31-4-8.1-4.37-12.89-5.41-1.35-.29-2.88-.62-4.83-1.1l-2.7-.63a52.43,52.43,0,0,1-10.78-3.33c-4.62-2.21-7.8-5.67-8.74-9.5-.88-3.61.47-7.48,2-11.26,1.24-2.85,2.28-5,3.28-7.06,1.16-2.38,2.36-4.85,3.86-8.39,1.22-2.88,2.61-6.14,2.46-9.63-.21-5.17-5.45-9-9.39-11.78a14.89,14.89,0,0,1-2.31-2.39c-1.22-1.62-2.2-4.15-1.34-6.41C3.2,78.64,4.9,77.35,6.88,76c1.5-1,3.07-2,4.59-3,4.25-2.7,8.65-5.51,11.93-9.62C26,60,27.49,56,28.88,52.12c.56-1.54,1.13-3.14,1.77-4.65,3.19-7.54,8.42-14.08,13.48-20.4,5.55-6.94,16.1-13.58,19.2-15.44C77.76,2.93,89,1.68,106,2.36c16.11.65,31.61,5.79,43.63,14.49a70.86,70.86,0,0,1,5,110.48,159.23,159.23,0,0,0-17.41,17.34,44.25,44.25,0,0,0-6.21,47.8l2-1a42,42,0,0,1,5.9-45.39A159.77,159.77,0,0,1,156.05,129,73.91,73.91,0,0,0,181,70.8Z"/></g></g></g></svg>