<svg xmlns="http://www.w3.org/2000/svg" viewBox="0 0 206.99 247.55"><defs><style>.cls-1{fill:#bbddde;}.cls-2{fill:#7c8c9c;}.cls-3{fill:#fff;}</style></defs><g id="Layer_2" data-name="Layer 2"><g id="Design"><path class="cls-1" d="M61.41,13.94C34.07,25,14.13,52.37,12.08,81.77c-.62,8.88.37,18.18,4.89,25.85S30.09,121,39,120.17c6.94-.64,12.92-4.93,18.52-9.07l65.84-48.67C129.08,58.18,134.94,53.81,139,48c3.38-4.83,7-13.87,3.93-19.68-2.66-5-11.18-8.78-16-11.19A82.55,82.55,0,0,0,85.23,8.62,76.7,76.7,0,0,0,61.41,13.94Z"/><path class="cls-2" d="M139.14,224.81h2.51v-7.55c1.11-22.37,10.8-31.72,16.47-35.3,6.85-4.32,8.63-4.7,13.94-5.85,1.47-.32,3.31-.72,5.58-1.27l3.06-.72a60.56,60.56,0,0,0,12.84-4c6-2.85,10.08-7.41,11.34-12.52,1.3-5.3-.91-10.79-2.86-15.63-.28-.7-.56-1.4-.83-2.09a5.69,5.69,0,0,1,.54-5.09,11.6,11.6,0,0,1,.91-1.17,12.14,12.14,0,0,0,1.38-1.91,6.62,6.62,0,0,0,.09-6.09,7.07,7.07,0,0,0-2.31-2.52,6,6,0,0,0,1.62-1.92c1.2-2.25,1-4.52-.48-5.77-2.44-2-4.51-3.93-5.14-6.4a4.57,4.57,0,0,1,0-2.38,27,27,0,0,0,6.81-5.86c2.28-3,3-6.77,1.86-9.73s-3.77-4.79-5.9-6.28c-1.75-1.22-3.57-2.38-5.33-3.5-4.9-3.13-9.53-6.07-13-10.46-2.77-3.47-4.28-7.65-5.87-12.08-.65-1.8-1.32-3.66-2.08-5.45-3.78-8.93-9.87-16.55-15.75-23.91-6.6-8.25-19-16-22.61-18.23C117.25-.09,102.12-.46,85.68.2c-18.9.75-37.1,6.8-51.25,17a83.52,83.52,0,0,0-5.82,130.21A180.81,180.81,0,0,1,48.27,167C60.49,181,63.26,202.29,55,218.9L57.25,220c8.7-17.49,5.78-40-7.1-54.64a182.54,182.54,0,0,0-19.9-19.82A81,81,0,0,1,35.9,19.26C49.65,9.32,67.36,3.44,85.78,2.7c19.43-.77,32.32.65,48.82,10.59,3.55,2.13,15.61,9.72,22,17.65,5.78,7.23,11.76,14.7,15.4,23.32.73,1.73,1.39,3.55,2,5.32,1.6,4.42,3.25,9,6.27,12.8,3.75,4.7,8.77,7.91,13.63,11,1.74,1.11,3.54,2.25,5.24,3.45,2.27,1.58,4.22,3.07,5,5.12,1,2.59-.14,5.48-1.52,7.33-1.71,2.27-4.2,3.93-6.6,5.54a1.22,1.22,0,0,0-.5.68,7.24,7.24,0,0,0-.13,4.14c.88,3.46,3.82,5.91,6,7.71.62.51.37,1.74-.12,2.67a3.65,3.65,0,0,1-2.75,1.85,1.25,1.25,0,0,0,0,2.49,5.2,5.2,0,0,1,3.46,2.4,4.17,4.17,0,0,1-.06,3.77,10.72,10.72,0,0,1-1.1,1.49,13.45,13.45,0,0,0-1.09,1.41,8.25,8.25,0,0,0-.77,7.37c.27.69.55,1.4.84,2.11,1.89,4.72,3.85,9.59,2.74,14.1s-4.71,8.34-10,10.86a59.53,59.53,0,0,1-12.33,3.81c-1,.24-2.06.47-3.08.72-2.24.55-4,.93-5.52,1.26-5.48,1.19-7.52,1.63-14.74,6.18-6.56,4.14-11.42,10.73-14.42,19.58a65.92,65.92,0,0,0-3.23,17.75v7.64Z"/><path class="cls-2" d="M146.09,92.37a20.74,20.74,0,0,0,8.4-1.78,24.4,24.4,0,0,0,12-12.48,1.25,1.25,0,1,0-2.29-1,21.89,21.89,0,0,1-10.78,11.2,18.16,18.16,0,0,1-14.47.12,1.25,1.25,0,0,0-1,2.31A20.68,20.68,0,0,0,146.09,92.37Z"/><path class="cls-2" d="M55.21,247.55a17.86,17.86,0,1,0-17.86-17.86A17.88,17.88,0,0,0,55.21,247.55Zm0-33.22a15.36,15.36,0,1,1-15.35,15.36A15.38,15.38,0,0,1,55.21,214.33Z"/><path class="cls-2" d="M55.21,241.19a11.5,11.5,0,1,0-11.5-11.5A11.51,11.51,0,0,0,55.21,241.19Zm0-20.49a9,9,0,1,1-9,9A9,9,0,0,1,55.21,220.7Z"/><circle class="cls-2" cx="55.21" cy="229.69" r="8.15" transform="translate(-180.35 247.39) rotate(-80.78)"/><path class="cls-3" d="M22.93,78.82a16.4,16.4,0,0,1,3.3-3.56,12.88,12.88,0,0,1-4.52-11.69,15.77,15.77,0,0,1,7.65-11,18.39,18.39,0,0,1,10.51-2.38A14,14,0,0,1,38.17,41a18.43,18.43,0,0,1,5.66-10.36,27.39,27.39,0,0,1,10.29-6,27.52,27.52,0,0,1,13-1.36,18.49,18.49,0,0,1,11.08,5.86,9.75,9.75,0,0,1,1.21-.31,10.22,10.22,0,0,1,2.08-6.33,16.59,16.59,0,0,1,5.9-4.78,21.28,21.28,0,0,1,11.7-2.42,15.57,15.57,0,0,1,10.47,5.35,12.39,12.39,0,0,1,2.67,9.91,14.7,14.7,0,0,1,11-1.47,13.18,13.18,0,0,1,9,8.34,12.79,12.79,0,0,1-2.38,12.07c-.2.23-.4.45-.61.66a13,13,0,0,1,5,11.58,13.94,13.94,0,0,1-8.37,10.9l-.47.18a8.93,8.93,0,0,1-6.28.13,11.64,11.64,0,0,1-2.2,9.39A14.51,14.51,0,0,1,110.36,87a15.43,15.43,0,0,1-3.7.85,13.16,13.16,0,0,1-7.29-1.15A9.76,9.76,0,0,1,96.94,85a14.36,14.36,0,0,1-2.49,7.66,13.65,13.65,0,0,1-6.54,5,12.27,12.27,0,0,1-3.15.7,1,1,0,0,1-.17.19,27,27,0,0,0-9.77,18.34l0,.3a7,7,0,0,1-.9,3.47,4.36,4.36,0,0,1-2.16,1.66,4.69,4.69,0,0,1-3,.09,6.54,6.54,0,0,1-3.44-3c-.22-.35-.43-.71-.64-1.06a16.24,16.24,0,0,0-1-1.54,15.94,15.94,0,0,1-5.63,3.38l-.59.21a15.56,15.56,0,0,1-8,.59A11.82,11.82,0,0,1,42.16,116a11.39,11.39,0,0,1-1.66-8.38l-.15,0a7.91,7.91,0,0,1-5.91-6.19,11,11,0,0,1-7.38-1.26,13.11,13.11,0,0,1-5-5.28A15.74,15.74,0,0,1,22.93,78.82ZM67,118.39a4.73,4.73,0,0,0,2.41,2.2,2.61,2.61,0,0,0,2.84-.94,5.51,5.51,0,0,0,.6-2.57l0-.31A28.92,28.92,0,0,1,82,98.27a11.38,11.38,0,0,1-5.64-2.54,10.49,10.49,0,0,1-.48,2.92,13,13,0,0,1-5.79,7,12.81,12.81,0,0,1-2.31,1.1c-.23.09-.47.16-.7.23a10.07,10.07,0,0,1-2,8.34,15.4,15.4,0,0,1,1.35,2C66.59,117.72,66.79,118.06,67,118.39ZM23.75,94a11.18,11.18,0,0,0,4.33,4.54,8.92,8.92,0,0,0,6.1,1h.14a9.43,9.43,0,0,1,2.79-6.1,7.78,7.78,0,0,1-1.9-6.85,1,1,0,0,1,1.16-.75A.92.92,0,0,1,37.11,87a5.92,5.92,0,0,0,2.74,6.25,6.52,6.52,0,0,0,7.07-.54,1,1,0,0,1,1.37.13.93.93,0,0,1-.17,1.33,8,8,0,0,1-2.23,1.23,8.51,8.51,0,0,1-7.07-.52l-.25-.16A7.26,7.26,0,0,0,36.36,101a6.08,6.08,0,0,0,4.49,4.77,5.76,5.76,0,0,0,6-2.47,1,1,0,0,1,1.33-.37.91.91,0,0,1,.35,1.29,7.42,7.42,0,0,1-3.87,3.08,8.36,8.36,0,0,1-2.25.47,9.56,9.56,0,0,0,1.36,7.2A9.93,9.93,0,0,0,50,119.14a13.49,13.49,0,0,0,7-.53,13.69,13.69,0,0,0,6.55-4.33,8.27,8.27,0,0,0,1.71-6.87,9.68,9.68,0,0,1-4.57-.46c-3.41-1.25-5.47-4.74-4.69-7.94a1,1,0,0,1,1.18-.73.91.91,0,0,1,.72,1.12c-.55,2.27,1,4.86,3.52,5.78a9.29,9.29,0,0,0,7.78-1.11A11.15,11.15,0,0,0,74,98.13,8.06,8.06,0,0,0,73,91a.93.93,0,0,1,.24-1.32,1,1,0,0,1,1.36.19,8.63,8.63,0,0,1,1,1.78l.09.14A9.1,9.1,0,0,0,84,96.5a11.34,11.34,0,0,0,8.82-4.91,12.85,12.85,0,0,0,1.86-9.91.94.94,0,0,1,0-.41l-.06-.17a1,1,0,0,1,.71-1.17,1,1,0,0,1,1.18.66A7.11,7.11,0,0,0,100.3,85a11.2,11.2,0,0,0,6.2,1,13.07,13.07,0,0,0,8.88-4.77,9.46,9.46,0,0,0,1.38-9.34.32.32,0,0,1,0-.09,9.87,9.87,0,0,1-2,1h0a13.15,13.15,0,0,1-7,.36A.92.92,0,0,1,107,72a1,1,0,0,1,1.17-.74,11.12,11.12,0,0,0,5.92-.27,6.71,6.71,0,0,0,4.06-3.7,4.34,4.34,0,0,0-1-4.77.92.92,0,0,1-.08-1.33,1,1,0,0,1,1.38-.11A6.11,6.11,0,0,1,120,67.93a7.57,7.57,0,0,1-1.56,2.44.93.93,0,0,1,.59.21c1.69,1.4,4.39,1,6.18.27a11.93,11.93,0,0,0,7.16-9.32,11,11,0,0,0-4.62-10.11,13.68,13.68,0,0,1-3.43,1.84,12.9,12.9,0,0,1-6.3.66.93.93,0,0,1-.79-1.08,1,1,0,0,1,1.14-.79,11.33,11.33,0,0,0,10-3.78,10.86,10.86,0,0,0,2-10.27,11.25,11.25,0,0,0-7.74-7.13A12.61,12.61,0,0,0,111.83,33a1,1,0,0,1-1.36-.14,1,1,0,0,1-.2-.49.9.9,0,0,1-.27-1,10.41,10.41,0,0,0-2-9.61,13.58,13.58,0,0,0-9.18-4.66,19.17,19.17,0,0,0-10.57,2.19,14.62,14.62,0,0,0-5.2,4.19,8.27,8.27,0,0,0-1.71,5.11,8.92,8.92,0,0,1,1.85.23,8.76,8.76,0,0,1,6.16,5.38,1,1,0,0,1-.6,1.22h0a1,1,0,0,1-1.24-.54,7,7,0,0,0-4.83-4.22,7.51,7.51,0,0,0-6.42,1.56,7.08,7.08,0,0,0-2.45,6,1,1,0,0,1-.87,1.06.94.94,0,0,1-1.07-.81A8.92,8.92,0,0,1,75,30.85a8.63,8.63,0,0,1,1.31-.93,16.72,16.72,0,0,0-9.57-4.82,25.57,25.57,0,0,0-12,1.27,25.46,25.46,0,0,0-9.54,5.56,16.62,16.62,0,0,0-5.09,9.27,11.89,11.89,0,0,0,2.42,9.35h.06a10.46,10.46,0,0,1,11.22-2.19.92.92,0,0,1,.47,1.25,1,1,0,0,1-1.3.48,8.5,8.5,0,0,0-9.21,2,7.82,7.82,0,0,0-1.07,9,.94.94,0,0,1-.36,1.3l-.16.08a1,1,0,0,1-1.17-.4,9.58,9.58,0,0,1,.24-9.85,16.52,16.52,0,0,0-10.89,1.93,13.72,13.72,0,0,0-6.69,9.6,11,11,0,0,0,4.21,10.32,17.22,17.22,0,0,1,10-2.68.92.92,0,0,1,.9,1,1,1,0,0,1-1.05.9,15.38,15.38,0,0,0-13.13,6.53A14.06,14.06,0,0,0,23.75,94Z"/><path class="cls-3" d="M86.51,49.7a6.26,6.26,0,0,0,1.22,6.61.93.93,0,0,1,0,1.34,1.08,1.08,0,0,1-.34.2,1,1,0,0,1-1-.23A8,8,0,0,1,84.71,49a8.85,8.85,0,0,1,7.39-5.25A8.4,8.4,0,0,1,100,47.92a1,1,0,0,1-.41,1.29,1,1,0,0,1-1.31-.36,6.57,6.57,0,0,0-6-3.19A6.91,6.91,0,0,0,86.51,49.7Z"/><path class="cls-3" d="M55,71.74a.94.94,0,0,1,1.16.69,1,1,0,0,1-.74,1.14,9.79,9.79,0,0,0-6.94,6.33,8.42,8.42,0,0,0,2.41,8.64A8.53,8.53,0,0,0,60,89.67a1,1,0,0,1,1.3.42,1,1,0,0,1-.46,1.27c-.31.15-.63.28-.95.4A10.54,10.54,0,0,1,49.61,90a10.15,10.15,0,0,1-3-10.57A11.65,11.65,0,0,1,55,71.74Z"/><path class="cls-3" d="M61.48,81.47a8.59,8.59,0,0,0,7.34-.26,8.36,8.36,0,0,0,4.31-5.87,7.73,7.73,0,0,0-1.55-6,10.23,10.23,0,0,1-3.4,2.07,9.76,9.76,0,0,1-2.26.52c-2.78.3-6.22-.94-7.15-3.82a1,1,0,0,1,1.86-.61c.61,1.88,3.08,2.77,5.12,2.55a7.94,7.94,0,0,0,5.94-3.83,7.39,7.39,0,0,0,.23-6.84,1,1,0,0,1,.45-1.28,1,1,0,0,1,1.3.41,9.11,9.11,0,0,1-.29,8.6,8.9,8.9,0,0,1-.49.76,9.62,9.62,0,0,1,2.29,6.26,7.79,7.79,0,0,0,9,.5A7.4,7.4,0,0,0,87.05,66a1,1,0,0,1,1.83-.71,8.41,8.41,0,0,1,.52,3.82,7.74,7.74,0,0,0,4.45,2.45A8.17,8.17,0,0,0,99,70.69a3.68,3.68,0,0,0,1.86-1.92,1,1,0,0,1,1.2-.69.92.92,0,0,1,.68,1.15,5.47,5.47,0,0,1-2.83,3.11,10.73,10.73,0,0,1-1.34.6,10.06,10.06,0,0,1-5.1.47,9.59,9.59,0,0,1-4.55-2.08,9.39,9.39,0,0,1-3.7,4.84,9.12,9.12,0,0,1-1.85.92,10,10,0,0,1-8.46-.8,10.38,10.38,0,0,1-5.19,6.57,9.6,9.6,0,0,1-1.27.56,10.59,10.59,0,0,1-7.83-.23.92.92,0,0,1-.45-1.26A1,1,0,0,1,61.48,81.47Z"/><path class="cls-3" d="M74.78,48.7a1,1,0,0,1-1.37.21,8.85,8.85,0,0,0-10.51.64,8.24,8.24,0,0,0-1.61,10.12A.93.93,0,0,1,61,61l-.18.09a1,1,0,0,1-1.15-.39,10,10,0,0,1,2-12.5,10.79,10.79,0,0,1,13-.79A.91.91,0,0,1,74.78,48.7Z"/><path class="cls-2" d="M183.58,58.15l1.49-.47c-.19-.61-.39-1.21-.59-1.81l-1.48.51C183.2,57,183.39,57.56,183.58,58.15Zm-1.21-3.52,1.47-.55-.68-1.77-1.46.58C181.93,53.47,182.16,54.05,182.37,54.63ZM181,51.17l1.44-.61c-.25-.58-.5-1.16-.76-1.74l-1.43.64C180.5,50,180.76,50.6,181,51.17Zm-1.54-3.39,1.41-.68c-.27-.57-.55-1.14-.84-1.7l-1.4.71C178.91,46.66,179.19,47.22,179.46,47.78Zm-1.69-3.32,1.38-.74-.92-1.66-1.36.77C177.17,43.37,177.48,43.92,177.77,44.46Zm-1.84-3.23,1.34-.81c-.32-.54-.66-1.08-1-1.62l-1.33.84C175.28,40.16,175.61,40.7,175.93,41.23Zm-2-3.15,1.31-.87c-.35-.53-.71-1.05-1.07-1.57l-1.29.9C173.25,37,173.6,37.56,173.94,38.08ZM171.81,35l1.27-.92c-.37-.51-.76-1-1.14-1.52l-1.24,1Zm-2.26-3,1.22-1c-.4-.5-.8-1-1.21-1.47l-1.2,1C168.76,31.1,169.16,31.59,169.55,32.07Zm-2.4-2.85,1.17-1c-.41-.47-.84-.94-1.27-1.41l-1.15,1.07C166.32,28.29,166.74,28.76,167.15,29.22Zm-2.53-2.74,1.13-1.09L164.41,24l-1.1,1.12C163.75,25.59,164.19,26,164.62,26.48ZM162,23.86l1.08-1.13c-.46-.43-.93-.87-1.4-1.29l-1,1.16C161.07,23,161.53,23.44,162,23.86Zm-2.76-2.49,1-1.18c-.48-.42-1-.83-1.45-1.23l-1,1.22C158.26,20.56,158.74,21,159.21,21.37ZM156.33,19l1-1.23c-.5-.39-1-.78-1.51-1.15l-.93,1.25Zm-3-2.22.91-1.28-1.56-1.08-.88,1.3C152.33,16.08,152.84,16.43,153.34,16.79Z"/><path class="cls-2" d="M68.5,201.22c.12-.63.22-1.27.3-1.9l-1.56-.2c-.07.61-.17,1.22-.28,1.82Zm.48-3.81q.08-1,.09-1.92l-1.57,0c0,.61,0,1.23-.08,1.83Zm-1.49-3.79,1.57-.05c0-.63-.06-1.28-.11-1.92l-1.56.13C67.44,192.39,67.47,193,67.49,193.62ZM67.2,190l1.55-.2c-.08-.63-.18-1.27-.29-1.9l-1.54.27C67,188.73,67.12,189.34,67.2,190Zm-.64-3.64,1.53-.33c-.13-.62-.28-1.25-.45-1.86l-1.51.4C66.29,185.11,66.43,185.71,66.56,186.31Zm-.94-3.57,1.5-.46c-.19-.6-.39-1.22-.6-1.81L65,181C65.25,181.56,65.44,182.15,65.62,182.74Zm-1.22-3.49,1.46-.57c-.23-.59-.48-1.18-.73-1.77l-1.44.63C63.94,178.11,64.18,178.68,64.4,179.25Zm-1.48-3.39,1.41-.68c-.27-.57-.56-1.14-.86-1.71l-1.38.73Zm-1.72-3.29,1.36-.77c-.31-.54-.63-1.1-1-1.64l-1.34.81C60.58,171.5,60.9,172,61.2,172.57Zm-1.93-3.17,1.32-.85c-.34-.53-.7-1.06-1.06-1.58l-1.29.89C58.59,168.37,58.94,168.89,59.27,169.4Zm-2.1-3.06,1.26-.92c-.36-.5-.74-1-1.13-1.52l-1.25.95C56.43,165.35,56.81,165.85,57.17,166.34Zm-2.27-3,1.23-1c-.4-.49-.8-1-1.21-1.46l-1.2,1Zm-2.39-2.85,1.18-1c-.42-.48-.83-.95-1.26-1.42l-1.16,1C51.69,159.59,52.1,160.06,52.51,160.53ZM50,157.76l1.14-1.07c-.43-.46-.87-.92-1.31-1.37l-1.12,1.09Zm-2.6-2.69,1.11-1.1-1.34-1.34-1.1,1.12Zm-2.67-2.62,1.09-1.13L45.5,151l-1-1-1.07,1.14,1,1ZM42,149.88l1.06-1.15-1.38-1.28-1.06,1.16Zm-2.77-2.54,1.06-1.16-1.4-1.26-1,1.16Zm-2.79-2.51,1-1.17-1.4-1.25-1,1.16Zm-2.79-2.52,1-1.16-1.4-1.26-1,1.16Zm-2.79-2.53,1.05-1.15-1.38-1.27-1.06,1.15Zm-2.77-2.55,1.07-1.15-1.36-1.28-1.08,1.13Zm-2.73-2.61,1.1-1.12-1.34-1.32L24,133.29C24.48,133.74,24.93,134.18,25.38,134.62Z"/><path class="cls-2" d="M148.32,209.63c.14-.61.29-1.22.44-1.82l-1.51-.38c-.16.61-.31,1.22-.46,1.83Zm.92-3.63c.17-.63.33-1.22.5-1.79l-1.5-.44c-.17.58-.34,1.18-.52,1.82Zm1.06-3.56c.19-.6.4-1.19.61-1.75l-1.47-.54q-.33.87-.63,1.8Zm1.29-3.46c.24-.57.49-1.14.75-1.68l-1.41-.68c-.27.57-.54,1.15-.79,1.75Zm1.6-3.31c.3-.54.62-1.07.94-1.57l-1.32-.84c-.34.52-.67,1.08-1,1.65Zm2-3.07c.37-.49.75-1,1.15-1.41l-1.18-1c-.42.47-.83,1-1.22,1.51Zm2.39-2.73c.43-.41.89-.82,1.36-1.21l-1-1.21c-.51.42-1,.85-1.46,1.29Zm2.81-2.3c.49-.34,1-.68,1.53-1l-.81-1.34q-.84.51-1.62,1.05Zm3.13-1.9c.52-.27,1.08-.55,1.65-.81l-.66-1.42c-.59.27-1.17.56-1.72.85Zm3.34-1.55c.55-.23,1.13-.45,1.73-.68L168,182c-.62.23-1.21.47-1.78.7Zm3.48-1.3c.59-.21,1.18-.4,1.77-.59l-.48-1.49-1.8.59Zm3.55-1.15,1.8-.55-.46-1.5-1.8.55Z"/><path class="cls-3" d="M50.81,228.32h3v-3a.47.47,0,0,1,.48-.48h1.76a.48.48,0,0,1,.49.48v3h3a.48.48,0,0,1,.48.49v1.76a.48.48,0,0,1-.48.48h-3v3a.49.49,0,0,1-.49.48H54.33a.48.48,0,0,1-.48-.48v-3h-3a.49.49,0,0,1-.48-.48v-1.76A.49.49,0,0,1,50.81,228.32Z"/></g></g></svg>