<svg xmlns="http://www.w3.org/2000/svg" viewBox="0 0 1080 238"><defs><style>.cls-1{fill:#4b455b;}.cls-2{fill:#b7534e;}.cls-3{fill:#f9311c;}.cls-4{fill:#ffece1;}.cls-5{fill:#e8281f;}.cls-6{fill:#990021;}.cls-7{fill:#ffa9b8;}.cls-8{fill:#b50808;}.cls-9{fill:#fd8d9b;}.cls-10{fill:#ff7676;}.cls-11{fill:#e55575;}.cls-12{fill:#ffc0a4;}</style></defs><g id="Layer_2" data-name="Layer 2"><g id="Layer_1-2" data-name="Layer 1"><path class="cls-1" d="M0,167.33v20.88C4.31,182.19,2.6,173.88,0,167.33Z"/><path d="M165.29,199c19.35-11.93,22.44,4.49,39.17-7.43,14.63-10.42-2.1-34.68-2.1-34.68s-20,14.71-51.48,6.31c-2.61-2.61-4.19-12-5.11-20.72a16.92,16.92,0,0,1-1-12.41c-.16-2.86-.22-4.7-.22-4.7a12,12,0,0,1-4,.35c-6.06-.48-8.93-7.5-5.41-12.46,6.6-9.28,7.28-23.29,8.33-38a72.56,72.56,0,0,1,3.31-16.85,34.71,34.71,0,0,1-4.12-8.1,28.56,28.56,0,0,0-10.5-9c-26.27-12.61-50.43,2.1-69.35-2.1S45,18.16,25,7.66C18.69,4.33,9.82,1.68,0,.57v106a42.36,42.36,0,0,0,11.35,3s6.3-18.91,16.81-7.36-5.26,20-5.26,20,10.51,46.23,21,55.69,16.81,0,50.43,3.15c25.09,2.35,43,38.68,50.46,57H162C158.05,225.3,154.27,205.77,165.29,199Z"/><path class="cls-2" d="M94.35,181c-33.62-3.15-39.92,6.3-50.43-3.15s-21-55.69-21-55.69,15.76-8.41,5.26-20-16.81,7.36-16.81,7.36a42.36,42.36,0,0,1-11.35-3v60.79c2.6,6.55,4.31,14.86,0,20.88V238H144.81C137.34,219.71,119.44,183.38,94.35,181Z"/><path class="cls-3" d="M367.82,199c19.35-11.93,22.44,4.49,39.18-7.43,14.62-10.42-2.1-34.68-2.1-34.68s-20,14.71-51.49,6.31c-2.61-2.61-4.18-12-5.11-20.72a17,17,0,0,1-1-12.41c-.16-2.86-.22-4.7-.22-4.7a12,12,0,0,1-4,.35c-6.06-.48-8.93-7.5-5.41-12.46,6.6-9.28,7.28-23.29,8.33-38a72.56,72.56,0,0,1,3.31-16.85,32.08,32.08,0,0,1-5.59-14.9A25.26,25.26,0,0,0,340,41.28c-26.27-12.61-50.43,2.1-69.35-2.1s-17.86-21-37.82-31.52S167.44-6.71,146.7,24c-6.86,10.14-6.43,19.36-4,26.34a34.71,34.71,0,0,0,4.12,8.1,65.91,65.91,0,0,1,6.18-14c12.61-4.2,24.17,14.71,32.57,38.88s33.63,26.27,33.63,26.27,6.3-18.91,16.81-7.36-5.26,20-5.26,20,10.51,46.23,21,55.69,16.81,0,50.43,3.15c24.94,2.34,43.13,38.46,50.86,57h11.85C360.79,224.93,357.05,205.61,367.82,199Z"/><path class="cls-4" d="M302.18,181c-33.62-3.15-39.92,6.3-50.43-3.15s-21-55.69-21-55.69,15.76-8.41,5.26-20-16.81,7.36-16.81,7.36-25.22-2.1-33.63-26.27-20-43.08-32.57-38.88a65.91,65.91,0,0,0-6.18,14,72.56,72.56,0,0,0-3.31,16.85c-1.05,14.7-1.73,28.71-8.33,38-3.52,5-.65,12,5.41,12.46a12,12,0,0,0,4-.35s.06,1.84.22,4.7c.1-.34.2-.68.31-1a38.34,38.34,0,0,0,23.64,4.2,29.43,29.43,0,0,1-22.59,10c-.14-.25-.26-.5-.38-.75.92,8.76,2.5,18.11,5.11,20.72,31.52,8.4,51.48-6.31,51.48-6.31s16.73,24.26,2.1,34.68c-16.73,11.92-19.82-4.5-39.17,7.43-11,6.8-7.24,26.33-3.31,39H353C345.31,219.49,327.12,183.37,302.18,181Zm-125-97.19s-12.61-12.09-27.32-2.63C154,67,175,72.8,177.15,83.84ZM174,99.07A27.1,27.1,0,0,0,152.72,103C158.23,86.46,172.42,92,174,99.07Zm-8.71,18.43c-1.93-4.58,3.35-11.16,11.79-14.7s16.83-2.7,18.75,1.88-3.36,11.17-11.79,14.71S167.2,122.08,165.28,117.5Z"/><path class="cls-5" d="M145.77,142.45c.12.25.24.5.38.75a29.43,29.43,0,0,0,22.59-10A38.34,38.34,0,0,1,145.1,129c-.11.34-.21.68-.31,1A16.92,16.92,0,0,0,145.77,142.45Zm21.92-8.18c-11.19,6.1-19.44,4.69-23.56.94C153.55,138,167.69,134.27,167.69,134.27Z"/><path d="M174,99.07C172.42,92,158.23,86.46,152.72,103A27.1,27.1,0,0,1,174,99.07Z"/><path d="M177.15,83.84C175,72.8,154,67,149.83,81.21,164.54,71.75,177.15,83.84,177.15,83.84Z"/><path class="cls-6" d="M167.69,134.27s-14.14,3.75-23.56.94C148.25,139,156.5,140.37,167.69,134.27Z"/><path class="cls-7" d="M195.82,104.68c-1.92-4.58-10.32-5.42-18.75-1.88s-13.72,10.12-11.79,14.7,10.31,5.43,18.75,1.89S197.74,109.26,195.82,104.68Z"/><path class="cls-5" d="M348.3,142.45c.12.25.25.5.38.75a29.43,29.43,0,0,0,22.59-10,38.36,38.36,0,0,1-23.64-4.2c-.11.34-.21.68-.31,1A17,17,0,0,0,348.3,142.45Zm21.92-8.18c-11.19,6.1-19.43,4.69-23.56.94C356.09,138,370.22,134.27,370.22,134.27Z"/><path d="M376.53,99.07C375,92,360.76,86.46,355.25,103A27.13,27.13,0,0,1,376.53,99.07Z"/><path d="M379.68,83.84c-2.1-11-23.12-16.82-27.32-2.63C367.07,71.75,379.68,83.84,379.68,83.84Z"/><path class="cls-8" d="M370.22,134.27s-14.13,3.75-23.56.94C350.79,139,359,140.37,370.22,134.27Z"/><path class="cls-9" d="M398.35,104.68c-1.92-4.58-10.32-5.42-18.75-1.88s-13.71,10.12-11.79,14.7,10.32,5.43,18.75,1.89S400.27,109.26,398.35,104.68Z"/><path class="cls-1" d="M501,181c-.2-.06.17.21,0,0Z"/><path class="cls-1" d="M601.7,157.27a.49.49,0,0,0-.68-.13c-3,2-22.1,13.7-50.94,6.07l-.24-.15c-2.55-2.74-4.09-11.91-5-20.53l0-.15a16.9,16.9,0,0,1-1-12.27l0-.15c-.11-1.86-.17-3.28-.2-4a.48.48,0,0,0-.58-.46,7.66,7.66,0,0,1-1.8.18c-8.08-.14-11.16-6.28-6.66-13,6.23-9.28,6.91-23,7.94-37.42a72.32,72.32,0,0,1,3.24-16.63.44.44,0,0,0-.06-.4,32.08,32.08,0,0,1-5.48-14.81.51.51,0,0,0-.31-.42c-12.26-4.67-24.78-2.6-37.78-2a5.59,5.59,0,0,0-2.2.56h0a2.19,2.19,0,0,1-.82.23c-9.15.8-17.27,1.35-25.95-2.56-17.66-8-17.86-21-37.82-31.52S370-6.71,349.23,24c-4.82,7.12-6,13.79-5.49,19.54a32.08,32.08,0,0,0,5.59,14.9,65.91,65.91,0,0,1,6.18-14c12.61-4.2,24.17,14.71,32.57,38.88s33.63,26.27,33.63,26.27,6.3-18.91,16.81-7.36-5.25,20-5.25,20,10.5,46.23,21,55.69c10,9,16.18.92,45.55,2.77L501,181c21.74,6.74,36.82,39.55,44,56.71a.47.47,0,0,0,.44.29h15.22a.48.48,0,0,0,.47-.62c-4-13.06-7.41-31.87,3.19-38.41,19.35-11.93,22.44,4.49,39.18-7.43C617,181.92,603.8,160.5,601.7,157.27Z"/><path d="M772.18,199c19.35-11.93,22.44,4.49,39.18-7.43,14.62-10.42-2.11-34.68-2.11-34.68s-20,14.71-51.48,6.31c-2.61-2.61-4.19-12-5.11-20.72a17,17,0,0,1-1-12.41c-.16-2.86-.22-4.7-.22-4.7a12,12,0,0,1-4,.35c-6.06-.48-8.93-7.5-5.41-12.46,6.6-9.28,7.28-23.29,8.33-38a72.56,72.56,0,0,1,3.31-16.85,34.71,34.71,0,0,1-4.12-8.1,28.48,28.48,0,0,0-10.5-9c-26.27-12.61-50.43,2.1-69.35-2.1s-17.86-21-37.82-31.52S566.5-6.71,545.76,24c-4.71,7-6,13.48-5.53,19.14a32,32,0,0,0,5.63,15.3,65.91,65.91,0,0,1,6.18-14c12.61-4.2,24.17,14.71,32.57,38.88s33.63,26.27,33.63,26.27,6.3-18.91,16.81-7.36-5.26,20-5.26,20,10.51,46.23,21,55.69,16.81,0,50.44,3.15c25.09,2.35,43,38.68,50.45,57h17.17C764.94,225.3,761.16,205.77,772.18,199Z"/><path class="cls-2" d="M701.25,181c-33.63-3.15-39.93,6.3-50.44-3.15s-21-55.69-21-55.69,15.77-8.41,5.26-20-16.81,7.36-16.81,7.36-25.22-2.1-33.63-26.27-20-43.08-32.57-38.88a65.91,65.91,0,0,0-6.18,14,72.56,72.56,0,0,0-3.31,16.85c-1,14.7-1.73,28.71-8.33,38-3.52,5-.65,12,5.41,12.46a12,12,0,0,0,4-.35s.06,1.84.22,4.7c.1-.34.2-.68.31-1a38.34,38.34,0,0,0,23.64,4.2,29.43,29.43,0,0,1-22.59,10c-.14-.25-.26-.5-.38-.75.92,8.76,2.5,18.11,5.11,20.72,31.52,8.4,51.48-6.31,51.48-6.31s16.73,24.26,2.11,34.68c-16.74,11.92-19.83-4.5-39.18,7.43-10.77,6.64-7.07,25.95-3,39H751.7C744.23,219.71,726.34,183.38,701.25,181Zm-125-97.19s-12.61-12.09-27.32-2.63C553.09,67,574.1,72.8,576.21,83.84ZM551.78,103c5.51-16.55,19.7-11,21.27-3.94A27.1,27.1,0,0,0,551.78,103Zm12.56,14.49c-1.93-4.58,3.35-11.16,11.79-14.7s16.83-2.7,18.75,1.88-3.36,11.17-11.79,14.71S566.26,122.08,564.34,117.5Z"/><path class="cls-10" d="M544.83,142.45c.12.25.24.5.38.75a29.43,29.43,0,0,0,22.59-10,38.34,38.34,0,0,1-23.64-4.2c-.11.34-.21.68-.31,1A16.92,16.92,0,0,0,544.83,142.45Zm21.92-8.18c-11.19,6.1-19.44,4.69-23.56.94C552.61,138,566.75,134.27,566.75,134.27Z"/><path d="M573.05,99.07C571.48,92,557.29,86.46,551.78,103A27.1,27.1,0,0,1,573.05,99.07Z"/><path d="M576.21,83.84c-2.11-11-23.12-16.82-27.32-2.63C563.6,71.75,576.21,83.84,576.21,83.84Z"/><path class="cls-6" d="M566.75,134.27s-14.14,3.75-23.56.94C547.31,139,555.56,140.37,566.75,134.27Z"/><path class="cls-11" d="M594.88,104.68c-1.92-4.58-10.32-5.42-18.75-1.88s-13.72,10.12-11.79,14.7,10.31,5.43,18.75,1.89S596.8,109.26,594.88,104.68Z"/><path class="cls-3" d="M974.71,199c19.35-11.93,22.44,4.49,39.18-7.43,14.62-10.42-2.1-34.68-2.1-34.68s-20,14.71-51.49,6.31c-2.61-2.61-4.18-12-5.1-20.72a16.93,16.93,0,0,1-1-12.41c-.16-2.86-.22-4.7-.22-4.7a12,12,0,0,1-4,.35c-6.06-.48-8.93-7.5-5.41-12.46,6.6-9.28,7.28-23.29,8.33-38a72.56,72.56,0,0,1,3.31-16.85,32.08,32.08,0,0,1-5.59-14.9,25.26,25.26,0,0,0-3.73-2.21c-26.27-12.61-50.43,2.1-69.35-2.1s-17.86-21-37.82-31.52S774.33-6.71,753.59,24c-6.86,10.14-6.43,19.36-4,26.34a34.71,34.71,0,0,0,4.12,8.1,65.91,65.91,0,0,1,6.18-14c12.61-4.2,24.17,14.71,32.57,38.88s33.63,26.27,33.63,26.27,6.3-18.91,16.81-7.36-5.26,20-5.26,20,10.51,46.23,21,55.69,16.81,0,50.44,3.15c24.93,2.34,43.12,38.46,50.85,57h11.85C967.68,224.93,963.94,205.61,974.71,199Z"/><path class="cls-4" d="M909.08,181c-33.63-3.15-39.93,6.3-50.44-3.15s-21-55.69-21-55.69,15.77-8.41,5.26-20-16.81,7.36-16.81,7.36-25.22-2.1-33.63-26.27-20-43.08-32.57-38.88a65.91,65.91,0,0,0-6.18,14,72.56,72.56,0,0,0-3.31,16.85c-1,14.7-1.73,28.71-8.33,38-3.52,5-.65,12,5.41,12.46a12,12,0,0,0,4-.35s.06,1.84.22,4.7c.1-.34.2-.68.31-1a38.36,38.36,0,0,0,23.64,4.2,29.43,29.43,0,0,1-22.59,10c-.14-.25-.26-.5-.38-.75.92,8.76,2.5,18.11,5.11,20.72,31.52,8.4,51.48-6.31,51.48-6.31s16.73,24.26,2.11,34.68c-16.74,11.92-19.83-4.5-39.18,7.43-11,6.8-7.24,26.33-3.31,39H959.93C952.2,219.49,934,183.37,909.08,181ZM784,83.84s-12.61-12.09-27.32-2.63C760.92,67,781.93,72.8,784,83.84Zm-3.16,15.23A27.1,27.1,0,0,0,759.61,103C765.12,86.46,779.31,92,780.88,99.07Zm-8.71,18.43c-1.93-4.58,3.35-11.16,11.79-14.7s16.83-2.7,18.75,1.88-3.36,11.17-11.79,14.71S774.09,122.08,772.17,117.5Z"/><path class="cls-5" d="M752.66,142.45c.12.25.24.5.38.75a29.43,29.43,0,0,0,22.59-10A38.36,38.36,0,0,1,752,129c-.11.34-.21.68-.31,1A17,17,0,0,0,752.66,142.45Zm21.92-8.18c-11.19,6.1-19.44,4.69-23.56.94C760.44,138,774.58,134.27,774.58,134.27Z"/><path d="M780.88,99.07C779.31,92,765.12,86.46,759.61,103A27.1,27.1,0,0,1,780.88,99.07Z"/><path d="M784,83.84c-2.11-11-23.12-16.82-27.32-2.63C771.43,71.75,784,83.84,784,83.84Z"/><path class="cls-6" d="M774.58,134.27s-14.14,3.75-23.56.94C755.14,139,763.39,140.37,774.58,134.27Z"/><path class="cls-7" d="M802.71,104.68c-1.92-4.58-10.32-5.42-18.75-1.88s-13.72,10.12-11.79,14.7,10.31,5.43,18.75,1.89S804.63,109.26,802.71,104.68Z"/><path class="cls-1" d="M1042.26,7.66c-20-10.51-65.4-14.37-86.14,16.29-4.82,7.12-6,13.79-5.49,19.54a32.08,32.08,0,0,0,5.59,14.9,65.91,65.91,0,0,1,6.18-14C975,40.23,986.57,59.14,995,83.31s33.63,26.27,33.63,26.27,6.3-18.91,16.81-7.36-5.25,20-5.25,20,10.5,46.23,21,55.69c5.79,5.21,10.32,4.68,18.83,3.67V39.14C1062.42,31.17,1062.19,18.15,1042.26,7.66Z"/><path class="cls-12" d="M1061.17,177.88c-10.51-9.46-21-55.69-21-55.69s15.76-8.41,5.25-20-16.81,7.36-16.81,7.36-25.22-2.1-33.63-26.27S975,40.23,962.4,44.43a65.91,65.91,0,0,0-6.18,14,72.56,72.56,0,0,0-3.31,16.85c-1,14.7-1.73,28.71-8.33,38-3.52,5-.65,12,5.41,12.46a12,12,0,0,0,4-.35s.06,1.84.22,4.7c.1-.34.2-.68.31-1a38.36,38.36,0,0,0,23.64,4.2,29.43,29.43,0,0,1-22.59,10c-.13-.25-.25-.5-.37-.75.92,8.76,2.49,18.11,5.1,20.72,31.52,8.4,51.49-6.31,51.49-6.31s16.72,24.26,2.1,34.68c-16.74,11.92-19.83-4.5-39.18,7.43-10.77,6.64-7,26-2.93,39H1080V181.55C1071.49,182.56,1067,183.09,1061.17,177.88Zm-74.6-94S974,71.75,959.25,81.21C963.45,67,984.47,72.8,986.57,83.84ZM962.14,103c5.51-16.55,19.7-11,21.28-3.94A27.13,27.13,0,0,0,962.14,103ZM974.7,117.5c-1.92-4.58,3.36-11.16,11.79-14.7s16.83-2.7,18.75,1.88-3.36,11.17-11.79,14.71S976.62,122.08,974.7,117.5Z"/><path class="cls-5" d="M955.2,142.45c.12.25.24.5.37.75a29.43,29.43,0,0,0,22.59-10,38.36,38.36,0,0,1-23.64-4.2c-.11.34-.21.68-.31,1A16.93,16.93,0,0,0,955.2,142.45Zm21.91-8.18c-11.19,6.1-19.43,4.69-23.56.94C963,138,977.11,134.27,977.11,134.27Z"/><path d="M983.42,99.07C981.84,92,967.65,86.46,962.14,103A27.13,27.13,0,0,1,983.42,99.07Z"/><path d="M986.57,83.84c-2.1-11-23.12-16.82-27.32-2.63C974,71.75,986.57,83.84,986.57,83.84Z"/><path class="cls-8" d="M977.11,134.27s-14.13,3.75-23.56.94C957.68,139,965.92,140.37,977.11,134.27Z"/><path class="cls-9" d="M1005.24,104.68c-1.92-4.58-10.32-5.42-18.75-1.88s-13.71,10.12-11.79,14.7,10.32,5.43,18.75,1.89S1007.16,109.26,1005.24,104.68Z"/><path class="cls-12" d="M501,181l-1.17-.35c-29.37-1.85-35.57,6.21-45.55-2.77-10.51-9.46-21-55.69-21-55.69s15.76-8.41,5.25-20-16.81,7.36-16.81,7.36-25.22-2.1-33.63-26.27-20-43.08-32.57-38.88a65.91,65.91,0,0,0-6.18,14A72.56,72.56,0,0,0,346,75.24c-1,14.7-1.73,28.71-8.33,38-3.52,5-.65,12,5.41,12.46a12,12,0,0,0,4-.35s.06,1.84.22,4.7c.1-.34.2-.68.31-1a38.36,38.36,0,0,0,23.64,4.2,29.43,29.43,0,0,1-22.59,10c-.13-.25-.26-.5-.38-.75.93,8.76,2.5,18.11,5.11,20.72,31.52,8.4,51.49-6.31,51.49-6.31s16.72,24.26,2.1,34.68c-16.74,11.92-19.83-4.5-39.18,7.43-10.77,6.64-7,26-2.93,39H545.15C538,220.82,523,187.55,501,181ZM379.68,83.84s-12.61-12.09-27.32-2.63C356.56,67,377.58,72.8,379.68,83.84ZM355.25,103c5.51-16.55,19.7-11,21.28-3.94A27.13,27.13,0,0,0,355.25,103Zm31.31,16.38c-8.43,3.54-16.83,2.69-18.75-1.89s3.36-11.16,11.79-14.7,16.83-2.7,18.75,1.88S395,115.85,386.56,119.39Z"/></g></g></svg>